<?xml version="1.0" encoding="utf-8"?>
<!-- Generator: Adobe Illustrator 17.0.0, SVG Export Plug-In . SVG Version: 6.00 Build 0)  -->
<!DOCTYPE svg PUBLIC "-//W3C//DTD SVG 1.1//EN" "http://www.w3.org/Graphics/SVG/1.1/DTD/svg11.dtd">
<svg version="1.1" id="Layer_1" xmlns="http://www.w3.org/2000/svg" xmlns:xlink="http://www.w3.org/1999/xlink" x="0px" y="0px"
	 width="272px" height="29px" viewBox="0 0 272 29" enable-background="new 0 0 272 29" xml:space="preserve">
<g>
	<g>
		<path fill="#FFFFFF" d="M16.386,21.961l-0.817-1.872L9.596,5.89H9.082L3.888,18.296c-0.378,0.888-0.589,1.397-0.633,1.529
			c-0.545,1.397-1.011,2.314-1.397,2.749c-0.387,0.435-0.976,0.714-1.767,0.837v0.606h5.313v-0.606
			c-0.571,0-1.039-0.138-1.404-0.415c-0.365-0.277-0.547-0.683-0.547-1.22c0-0.501,0.343-1.573,1.028-3.217l0.461-1.134h6.789
			l1.371,3.309c0.404,0.958,0.606,1.534,0.606,1.727c0,0.378-0.152,0.631-0.455,0.758c-0.303,0.128-0.885,0.191-1.747,0.191v0.606
			h7.027v-0.606c-0.624-0.061-1.092-0.213-1.404-0.455C16.818,22.715,16.57,22.383,16.386,21.961z M5.193,16.833l3.151-7.62
			l3.164,7.62H5.193z M36.662,22.04c-0.448,0.782-1.086,1.173-1.912,1.173c-0.598,0-1.169-0.18-1.714-0.54
			c-0.536-0.351-1.275-1.204-2.215-2.558c0.396-0.518,0.831-1.345,1.305-2.479c0.571-1.38,1.116-2.307,1.635-2.782
			c0.545-0.492,1.169-0.835,1.872-1.028V13.22h-5.643v0.606c1.371,0.158,2.057,0.743,2.057,1.753c0,0.431-0.145,1.02-0.435,1.767
			c-0.29,0.756-0.686,1.481-1.187,2.175c-0.694-0.993-1.409-1.999-2.142-3.019c-0.734-1.02-1.496-2.061-2.287-3.125
			c2.531-1.274,3.797-2.588,3.797-3.942c0-0.861-0.382-1.564-1.147-2.109c-0.756-0.536-1.613-0.804-2.571-0.804
			c-1.072,0-1.956,0.36-2.65,1.081c-0.703,0.721-1.055,1.534-1.055,2.439c0,1.16,0.514,2.457,1.542,3.889
			c-1.714,1.151-2.87,2.101-3.467,2.848c-0.598,0.756-0.896,1.683-0.896,2.782c-0.018,0.721,0.119,1.382,0.409,1.984
			c0.29,0.602,0.672,1.121,1.147,1.556c0.475,0.435,1.015,0.771,1.621,1.008c0.607,0.237,1.222,0.351,1.846,0.343
			c1.731,0,3.366-0.861,4.904-2.584c1.301,1.723,2.808,2.584,4.522,2.584c0.791,0,1.485-0.22,2.083-0.659
			c0.607-0.448,1.002-1.033,1.187-1.753H36.662z M24.599,7.789c0.378-0.422,0.888-0.633,1.529-0.633c0.316,0,0.607,0.057,0.87,0.171
			c0.264,0.114,0.49,0.277,0.679,0.488c0.189,0.211,0.334,0.464,0.435,0.758c0.101,0.295,0.152,0.618,0.152,0.969
			c0,1.195-0.879,2.307-2.637,3.336c-1.063-1.485-1.595-2.659-1.595-3.52C24.032,8.725,24.221,8.202,24.599,7.789z M25.693,23.134
			c-1.099,0-2.083-0.479-2.953-1.437c-0.87-0.958-1.305-1.982-1.305-3.072c0-0.694,0.25-1.419,0.751-2.175
			c0.501-0.747,1.208-1.406,2.123-1.978c0.668,0.879,1.397,1.888,2.189,3.026c0.791,1.138,1.652,2.415,2.584,3.83
			C28.036,22.532,26.906,23.134,25.693,23.134z M53.511,21.961l-0.817-1.872L46.721,5.89h-0.514l-5.194,12.406
			c-0.378,0.888-0.589,1.397-0.633,1.529c-0.545,1.397-1.011,2.314-1.397,2.749c-0.387,0.435-0.976,0.714-1.767,0.837v0.606h5.313
			v-0.606c-0.571,0-1.039-0.138-1.404-0.415c-0.365-0.277-0.547-0.683-0.547-1.22c0-0.501,0.343-1.573,1.028-3.217l0.461-1.134
			h6.789l1.371,3.309c0.404,0.958,0.606,1.534,0.606,1.727c0,0.378-0.152,0.631-0.455,0.758c-0.303,0.128-0.885,0.191-1.747,0.191
			v0.606h7.027v-0.606c-0.624-0.061-1.092-0.213-1.404-0.455C53.943,22.715,53.695,22.383,53.511,21.961z M42.318,16.833l3.151-7.62
			l3.164,7.62H42.318z M70.412,15.607c2.048,0,3.478-0.193,4.291-0.58c0.813-0.387,1.437-0.953,1.872-1.701
			c0.435-0.747,0.653-1.608,0.653-2.584c0-1.125-0.319-2.057-0.956-2.795c-0.637-0.738-1.455-1.252-2.452-1.542
			c-0.998-0.29-2.419-0.435-4.265-0.435c-1.002,0-2.399,0.031-4.192,0.092l-2.241,0.079v0.606h0.33c0.905,0,1.494,0.079,1.767,0.237
			c0.272,0.158,0.448,0.444,0.527,0.857c0.079,0.413,0.119,1.332,0.119,2.755v8.767c0,1.494-0.04,2.446-0.119,2.854
			s-0.266,0.71-0.56,0.903c-0.295,0.193-0.824,0.29-1.589,0.29h-0.475v0.606h8.187v-0.606h-0.593c-0.8,0-1.345-0.106-1.635-0.316
			c-0.29-0.211-0.468-0.534-0.534-0.969c-0.066-0.435-0.099-1.356-0.099-2.762v-3.757H70.412z M68.448,6.668
			c0.316-0.035,0.773-0.053,1.371-0.053c1.626,0,2.802,0.345,3.527,1.035c0.725,0.69,1.088,1.773,1.088,3.25
			c0,0.967-0.211,1.78-0.633,2.439c-0.422,0.659-0.949,1.092-1.582,1.299c-0.633,0.207-1.463,0.31-2.492,0.31h-1.279V6.668z
			 M91.229,21.961l-0.817-1.872L84.44,5.89h-0.514l-5.194,12.406c-0.378,0.888-0.589,1.397-0.633,1.529
			c-0.545,1.397-1.011,2.314-1.397,2.749c-0.387,0.435-0.976,0.714-1.767,0.837v0.606h5.313v-0.606
			c-0.571,0-1.039-0.138-1.404-0.415c-0.365-0.277-0.547-0.683-0.547-1.22c0-0.501,0.343-1.573,1.028-3.217l0.461-1.134h6.79
			l1.371,3.309c0.404,0.958,0.606,1.534,0.606,1.727c0,0.378-0.152,0.631-0.455,0.758c-0.303,0.128-0.886,0.191-1.747,0.191v0.606
			h7.027v-0.606c-0.624-0.061-1.092-0.213-1.404-0.455C91.662,22.715,91.414,22.383,91.229,21.961z M80.036,16.833l3.151-7.62
			l3.164,7.62H80.036z M106.904,18.942c-1.661-2.241-2.865-3.542-3.612-3.902c1.67-0.202,2.935-0.716,3.797-1.543
			c0.861-0.826,1.292-1.824,1.292-2.993c0-1.002-0.33-1.863-0.989-2.584c-0.659-0.721-1.523-1.239-2.591-1.556
			c-1.068-0.316-2.454-0.475-4.159-0.475c-1.002,0-2.355,0.039-4.061,0.119l-2.558,0.132v0.606h0.303
			c0.905,0,1.494,0.079,1.767,0.237c0.272,0.158,0.448,0.444,0.527,0.857c0.079,0.413,0.119,1.332,0.119,2.755v8.767
			c0,1.494-0.039,2.446-0.119,2.854s-0.266,0.71-0.56,0.903c-0.295,0.193-0.824,0.29-1.589,0.29h-0.58v0.606h8.556v-0.606h-0.857
			c-0.809,0-1.356-0.106-1.641-0.316c-0.286-0.211-0.461-0.534-0.527-0.969c-0.066-0.435-0.099-1.356-0.099-2.762v-3.968h0.712
			c0.483,0,0.839,0.081,1.068,0.244c0.228,0.163,0.646,0.615,1.253,1.358c0.606,0.743,1.191,1.518,1.753,2.327
			c1.758,2.531,3.063,4.096,3.916,4.693h4.812v-0.606c-1.055-0.035-1.969-0.334-2.742-0.896
			C109.321,21.952,108.258,20.761,106.904,18.942z M101.367,14.71c-0.703,0.035-1.384,0.062-2.044,0.079V6.615
			c0.422-0.035,0.795-0.053,1.121-0.053c2.109,0,3.478,0.378,4.107,1.134c0.628,0.756,0.943,1.762,0.943,3.019
			c0,0.721-0.092,1.327-0.277,1.819c-0.185,0.492-0.437,0.89-0.758,1.193c-0.321,0.303-0.74,0.534-1.259,0.692
			C102.681,14.578,102.07,14.675,101.367,14.71z M110.912,6.141l-0.092,4.298h0.606c0.185-1.134,0.45-1.977,0.798-2.531
			c0.347-0.554,0.719-0.885,1.114-0.995c0.396-0.11,1.169-0.165,2.32-0.165h2.65v12.617c0,1.494-0.042,2.446-0.125,2.854
			c-0.084,0.409-0.273,0.71-0.567,0.903c-0.295,0.193-0.824,0.29-1.589,0.29h-0.923v0.606h8.912v-0.606h-0.87
			c-0.8,0-1.345-0.106-1.635-0.316c-0.29-0.211-0.468-0.536-0.534-0.976c-0.066-0.439-0.099-1.358-0.099-2.755V6.747h2.874
			c0.976,0,1.666,0.059,2.07,0.178c0.404,0.119,0.782,0.44,1.134,0.962c0.352,0.523,0.628,1.373,0.831,2.551h0.567l-0.092-4.298
			H110.912z M141.419,6.747c0.791,0,1.34,0.154,1.648,0.461c0.307,0.308,0.461,0.646,0.461,1.015c0,0.404-0.29,1.09-0.87,2.057
			l-3.52,5.919l-4.271-7.053c-0.448-0.738-0.672-1.23-0.672-1.477c0-0.615,0.677-0.923,2.03-0.923V6.141h-7.251v0.606
			c0.773,0.018,1.31,0.169,1.608,0.455c0.299,0.286,0.901,1.167,1.806,2.643l4.456,7.317v2.202c0,1.494-0.039,2.446-0.119,2.854
			s-0.266,0.71-0.56,0.903c-0.295,0.193-0.824,0.29-1.589,0.29h-0.29v0.606h7.62v-0.606c-0.888,0-1.483-0.086-1.786-0.257
			c-0.303-0.171-0.501-0.466-0.593-0.883c-0.092-0.417-0.138-1.386-0.138-2.907v-2.373l4.008-6.684
			c0.773-1.283,1.408-2.169,1.905-2.656c0.496-0.488,1.149-0.789,1.958-0.903V6.141h-5.84V6.747z M165.591,6.404
			c-0.998-0.29-2.419-0.435-4.265-0.435c-1.002,0-2.399,0.031-4.192,0.092l-2.241,0.079v0.606h0.33c0.905,0,1.494,0.079,1.767,0.237
			c0.272,0.158,0.448,0.444,0.527,0.857c0.079,0.413,0.119,1.332,0.119,2.755v8.767c0,1.494-0.04,2.446-0.119,2.854
			s-0.266,0.71-0.56,0.903c-0.295,0.193-0.824,0.29-1.589,0.29h-0.475v0.606h8.187v-0.606h-0.593c-0.8,0-1.345-0.106-1.635-0.316
			c-0.29-0.211-0.468-0.534-0.534-0.969c-0.066-0.435-0.099-1.356-0.099-2.762v-3.757h1.964c2.048,0,3.478-0.193,4.291-0.58
			c0.813-0.387,1.437-0.953,1.872-1.701c0.435-0.747,0.653-1.608,0.653-2.584c0-1.125-0.319-2.057-0.956-2.795
			C167.406,7.209,166.589,6.694,165.591,6.404z M165.571,13.339c-0.422,0.659-0.949,1.092-1.582,1.299
			c-0.633,0.207-1.463,0.31-2.492,0.31h-1.279V6.668c0.317-0.035,0.773-0.053,1.371-0.053c1.626,0,2.802,0.345,3.527,1.035
			c0.725,0.69,1.088,1.773,1.088,3.25C166.204,11.867,165.993,12.68,165.571,13.339z M187.238,8.29
			c-1.868-1.652-4.195-2.479-6.981-2.479c-2.76,0-5.062,0.835-6.908,2.505c-1.846,1.67-2.768,3.885-2.768,6.645
			c0,2.83,0.91,5.102,2.729,6.816c1.819,1.714,4.148,2.571,6.987,2.571c2.918,0,5.271-0.857,7.06-2.571
			c1.788-1.714,2.683-3.955,2.683-6.724C190.04,12.196,189.106,9.942,187.238,8.29z M185.254,21.526
			c-1.169,1.442-2.76,2.162-4.773,2.162c-2.294,0-4.014-0.721-5.161-2.162c-1.147-1.441-1.721-3.599-1.721-6.473
			c0-2.83,0.573-4.968,1.721-6.414c1.147-1.446,2.797-2.169,4.95-2.169c2.188,0,3.858,0.74,5.01,2.221
			c1.151,1.481,1.727,3.61,1.727,6.387C187.008,17.936,186.423,20.085,185.254,21.526z M202.993,6.404
			c-0.998-0.29-2.419-0.435-4.265-0.435c-1.002,0-2.399,0.031-4.192,0.092l-2.241,0.079v0.606h0.33c0.905,0,1.494,0.079,1.767,0.237
			c0.272,0.158,0.448,0.444,0.527,0.857c0.079,0.413,0.119,1.332,0.119,2.755v8.767c0,1.494-0.04,2.446-0.119,2.854
			s-0.266,0.71-0.56,0.903c-0.295,0.193-0.824,0.29-1.589,0.29h-0.475v0.606h8.187v-0.606h-0.593c-0.8,0-1.345-0.106-1.635-0.316
			c-0.29-0.211-0.468-0.534-0.534-0.969c-0.066-0.435-0.099-1.356-0.099-2.762v-3.757h1.964c2.048,0,3.478-0.193,4.291-0.58
			c0.813-0.387,1.437-0.953,1.872-1.701c0.435-0.747,0.653-1.608,0.653-2.584c0-1.125-0.319-2.057-0.956-2.795
			C204.808,7.209,203.99,6.694,202.993,6.404z M202.973,13.339c-0.422,0.659-0.949,1.092-1.582,1.299
			c-0.633,0.207-1.463,0.31-2.492,0.31h-1.279V6.668c0.316-0.035,0.773-0.053,1.371-0.053c1.626,0,2.802,0.345,3.527,1.035
			c0.725,0.69,1.088,1.773,1.088,3.25C203.606,11.867,203.395,12.68,202.973,13.339z M218.18,6.404
			c-0.998-0.29-2.419-0.435-4.265-0.435c-1.002,0-2.399,0.031-4.192,0.092l-2.241,0.079v0.606h0.33c0.905,0,1.494,0.079,1.767,0.237
			c0.272,0.158,0.448,0.444,0.527,0.857c0.079,0.413,0.119,1.332,0.119,2.755v8.767c0,1.494-0.04,2.446-0.119,2.854
			s-0.266,0.71-0.56,0.903c-0.295,0.193-0.824,0.29-1.589,0.29h-0.475v0.606h8.187v-0.606h-0.593c-0.8,0-1.345-0.106-1.635-0.316
			c-0.29-0.211-0.468-0.534-0.534-0.969c-0.066-0.435-0.099-1.356-0.099-2.762v-3.757h1.964c2.048,0,3.478-0.193,4.291-0.58
			c0.813-0.387,1.437-0.953,1.872-1.701c0.435-0.747,0.653-1.608,0.653-2.584c0-1.125-0.319-2.057-0.956-2.795
			C219.995,7.209,219.178,6.694,218.18,6.404z M218.161,13.339c-0.422,0.659-0.949,1.092-1.582,1.299
			c-0.633,0.207-1.463,0.31-2.492,0.31h-1.279V6.668c0.316-0.035,0.773-0.053,1.371-0.053c1.626,0,2.802,0.345,3.527,1.035
			c0.725,0.69,1.088,1.773,1.088,3.25C218.794,11.867,218.583,12.68,218.161,13.339z M235.899,21.559
			c-0.549,0.751-1.127,1.248-1.734,1.49c-0.606,0.242-1.38,0.363-2.32,0.363h-1.332c-1.195,0-1.929-0.187-2.202-0.56
			c-0.273-0.374-0.409-1.619-0.409-3.738v-4.232h1.964c0.765,0,1.307,0.051,1.628,0.152c0.321,0.101,0.565,0.321,0.732,0.659
			c0.167,0.338,0.25,1.004,0.25,1.997h0.62v-6.117h-0.62c0,0.879-0.055,1.47-0.165,1.773c-0.11,0.303-0.338,0.53-0.685,0.679
			c-0.347,0.15-0.956,0.224-1.826,0.224h-1.898V6.747h2.478c1.248,0,2.153,0.068,2.716,0.204c0.562,0.136,1.048,0.466,1.457,0.989
			c0.409,0.523,0.754,1.409,1.035,2.656h0.62l-0.422-4.456h-12.775v0.606c0.861,0,1.426,0.086,1.694,0.257
			c0.268,0.171,0.439,0.473,0.514,0.903c0.074,0.431,0.112,1.327,0.112,2.689v8.767c0,1.494-0.035,2.424-0.106,2.788
			c-0.07,0.365-0.235,0.666-0.494,0.903c-0.259,0.237-0.833,0.356-1.72,0.356h-0.369v0.606h14.805l0.382-5.563h-0.633
			C236.881,19.772,236.448,20.807,235.899,21.559z M252.359,18.942c-1.661-2.241-2.865-3.542-3.612-3.902
			c1.67-0.202,2.935-0.716,3.797-1.543c0.861-0.826,1.292-1.824,1.292-2.993c0-1.002-0.329-1.863-0.989-2.584
			c-0.659-0.721-1.523-1.239-2.591-1.556c-1.068-0.316-2.454-0.475-4.159-0.475c-1.002,0-2.356,0.039-4.061,0.119l-2.558,0.132
			v0.606h0.303c0.905,0,1.494,0.079,1.767,0.237c0.272,0.158,0.448,0.444,0.527,0.857c0.079,0.413,0.119,1.332,0.119,2.755v8.767
			c0,1.494-0.039,2.446-0.119,2.854s-0.266,0.71-0.56,0.903c-0.295,0.193-0.824,0.29-1.589,0.29h-0.58v0.606h8.556v-0.606h-0.857
			c-0.809,0-1.356-0.106-1.641-0.316c-0.286-0.211-0.461-0.534-0.527-0.969c-0.066-0.435-0.099-1.356-0.099-2.762v-3.968h0.712
			c0.483,0,0.839,0.081,1.068,0.244c0.229,0.163,0.646,0.615,1.252,1.358c0.607,0.743,1.191,1.518,1.753,2.327
			c1.758,2.531,3.063,4.096,3.916,4.693h4.812v-0.606c-1.055-0.035-1.969-0.334-2.742-0.896
			C254.776,21.952,253.712,20.761,252.359,18.942z M246.822,14.71c-0.703,0.035-1.384,0.062-2.043,0.079V6.615
			c0.422-0.035,0.795-0.053,1.121-0.053c2.109,0,3.478,0.378,4.107,1.134c0.628,0.756,0.943,1.762,0.943,3.019
			c0,0.721-0.092,1.327-0.277,1.819c-0.185,0.492-0.437,0.89-0.758,1.193c-0.321,0.303-0.74,0.534-1.259,0.692
			C248.136,14.578,247.525,14.675,246.822,14.71z M271.093,16.622c-0.422-0.738-0.982-1.316-1.681-1.734
			c-0.699-0.417-1.817-0.969-3.355-1.655c-1.608-0.721-2.72-1.371-3.335-1.951c-0.624-0.571-0.936-1.27-0.936-2.096
			c0-0.686,0.248-1.316,0.745-1.892c0.497-0.576,1.277-0.864,2.34-0.864c1.116,0,2.098,0.391,2.946,1.173
			c0.848,0.782,1.439,1.854,1.773,3.217h0.58v-4.68h-0.58c-0.053,0.563-0.281,1.086-0.685,1.569
			c-0.703-0.773-1.389-1.283-2.057-1.529c-0.668-0.246-1.38-0.369-2.136-0.369c-1.354,0-2.472,0.424-3.355,1.272
			c-0.883,0.848-1.325,1.91-1.325,3.184c0,0.835,0.204,1.622,0.613,2.36c0.409,0.738,0.978,1.338,1.707,1.8
			c0.729,0.461,1.81,1,3.243,1.615c1.608,0.686,2.716,1.327,3.322,1.925c0.606,0.606,0.91,1.358,0.91,2.254
			c0,0.888-0.345,1.69-1.035,2.406c-0.69,0.716-1.663,1.074-2.92,1.074c-2.795,0-4.566-1.872-5.313-5.616H259.9v5.748h0.659
			c0.141-0.747,0.356-1.327,0.646-1.74c1.31,1.503,2.944,2.254,4.904,2.254c1.705,0,3.067-0.479,4.087-1.437
			c1.02-0.958,1.529-2.202,1.529-3.731C271.726,18.212,271.515,17.36,271.093,16.622z"/>
	</g>
</g>
</svg>
