<?xml version="1.0" encoding="utf-8"?>
<!-- Generator: Adobe Illustrator 17.0.0, SVG Export Plug-In . SVG Version: 6.00 Build 0)  -->
<!DOCTYPE svg PUBLIC "-//W3C//DTD SVG 1.1//EN" "http://www.w3.org/Graphics/SVG/1.1/DTD/svg11.dtd">
<svg version="1.1" id="Layer_1" xmlns="http://www.w3.org/2000/svg" xmlns:xlink="http://www.w3.org/1999/xlink" x="0px" y="0px"
	 width="363px" height="38px" viewBox="0 0 363 38" enable-background="new 0 0 363 38" xml:space="preserve">
<g>
	<g>
		<path fill="#BB9E6A" d="M22.341,27.275l-1.09-2.496L13.288,5.848h-0.685L5.677,22.389c-0.504,1.184-0.785,1.863-0.844,2.039
			c-0.727,1.863-1.348,3.085-1.863,3.665c-0.516,0.58-1.301,0.952-2.355,1.116v0.809h7.084v-0.809c-0.762,0-1.386-0.185-1.872-0.554
			c-0.486-0.369-0.729-0.911-0.729-1.626c0-0.668,0.457-2.098,1.371-4.289l0.615-1.512h9.053l1.828,4.412
			c0.539,1.277,0.809,2.045,0.809,2.303c0,0.504-0.202,0.841-0.606,1.011c-0.404,0.17-1.181,0.255-2.329,0.255v0.809h9.369v-0.809
			c-0.832-0.082-1.456-0.284-1.872-0.606C22.918,28.28,22.587,27.838,22.341,27.275z M7.417,20.438l4.201-10.16l4.219,10.16H7.417z
			 M49.376,27.381c-0.598,1.043-1.447,1.565-2.549,1.565c-0.797,0-1.559-0.24-2.285-0.721c-0.715-0.469-1.699-1.605-2.953-3.41
			c0.527-0.691,1.107-1.793,1.74-3.305c0.762-1.84,1.488-3.076,2.18-3.709c0.727-0.656,1.559-1.113,2.496-1.371v-0.809h-7.523v0.809
			c1.828,0.211,2.742,0.99,2.742,2.338c0,0.574-0.193,1.36-0.58,2.356c-0.387,1.008-0.914,1.975-1.582,2.9
			c-0.926-1.324-1.878-2.666-2.857-4.025c-0.979-1.359-1.995-2.748-3.05-4.166c3.375-1.699,5.062-3.451,5.062-5.256
			c0-1.148-0.51-2.086-1.529-2.812c-1.008-0.715-2.15-1.072-3.428-1.072c-1.43,0-2.608,0.481-3.533,1.441
			c-0.938,0.961-1.406,2.045-1.406,3.252c0,1.547,0.686,3.276,2.057,5.186c-2.285,1.535-3.826,2.801-4.623,3.797
			c-0.797,1.008-1.195,2.244-1.195,3.709c-0.024,0.961,0.158,1.843,0.545,2.646c0.387,0.803,0.896,1.494,1.529,2.074
			c0.633,0.58,1.354,1.028,2.162,1.345c0.808,0.316,1.629,0.469,2.461,0.457c2.308,0,4.488-1.148,6.539-3.445
			c1.734,2.297,3.744,3.445,6.029,3.445c1.055,0,1.98-0.293,2.777-0.879c0.809-0.598,1.336-1.377,1.582-2.338H49.376z M33.292,8.379
			c0.504-0.562,1.184-0.844,2.039-0.844c0.422,0,0.809,0.076,1.16,0.229c0.352,0.153,0.653,0.369,0.905,0.65
			c0.252,0.281,0.445,0.618,0.58,1.011c0.135,0.393,0.202,0.823,0.202,1.292c0,1.594-1.172,3.076-3.516,4.447
			c-1.418-1.98-2.127-3.545-2.127-4.693C32.536,9.627,32.788,8.93,33.292,8.379z M34.751,28.84c-1.465,0-2.777-0.639-3.938-1.916
			c-1.16-1.277-1.74-2.643-1.74-4.096c0-0.926,0.334-1.892,1.002-2.9c0.668-0.996,1.611-1.875,2.83-2.637
			c0.891,1.172,1.863,2.517,2.918,4.034c1.055,1.518,2.203,3.22,3.445,5.106C37.874,28.037,36.368,28.84,34.751,28.84z
			 M71.841,27.275l-1.09-2.496L62.788,5.848h-0.685l-6.926,16.541c-0.504,1.184-0.785,1.863-0.844,2.039
			c-0.727,1.863-1.348,3.085-1.863,3.665c-0.516,0.58-1.301,0.952-2.355,1.116v0.809h7.084v-0.809c-0.762,0-1.386-0.185-1.872-0.554
			c-0.486-0.369-0.729-0.911-0.729-1.626c0-0.668,0.457-2.098,1.371-4.289l0.615-1.512h9.053l1.828,4.412
			c0.539,1.277,0.809,2.045,0.809,2.303c0,0.504-0.202,0.841-0.606,1.011c-0.404,0.17-1.181,0.255-2.329,0.255v0.809h9.369v-0.809
			c-0.832-0.082-1.456-0.284-1.872-0.606C72.418,28.28,72.087,27.838,71.841,27.275z M56.917,20.438l4.201-10.16l4.219,10.16H56.917
			z M94.376,18.803c2.73,0,4.638-0.258,5.722-0.773c1.084-0.516,1.916-1.271,2.496-2.268c0.58-0.996,0.87-2.145,0.87-3.445
			c0-1.5-0.425-2.742-1.274-3.727c-0.85-0.984-1.94-1.67-3.27-2.057c-1.33-0.387-3.226-0.58-5.686-0.58
			c-1.336,0-3.199,0.041-5.59,0.123l-2.988,0.106V6.99h0.44c1.207,0,1.992,0.105,2.355,0.316c0.363,0.211,0.598,0.592,0.703,1.143
			c0.105,0.551,0.158,1.775,0.158,3.674v11.689c0,1.992-0.053,3.261-0.158,3.806c-0.105,0.545-0.355,0.947-0.747,1.204
			c-0.393,0.258-1.099,0.387-2.118,0.387h-0.633v0.809h10.916v-0.809H94.78c-1.066,0-1.793-0.141-2.18-0.422
			c-0.387-0.281-0.624-0.712-0.712-1.292c-0.088-0.58-0.132-1.808-0.132-3.683v-5.01H94.376z M91.757,6.885
			c0.422-0.047,1.031-0.07,1.828-0.07c2.168,0,3.735,0.46,4.702,1.38c0.967,0.92,1.45,2.364,1.45,4.333
			c0,1.289-0.281,2.373-0.844,3.252c-0.562,0.879-1.266,1.456-2.109,1.731c-0.844,0.275-1.951,0.413-3.322,0.413h-1.705V6.885z
			 M122.132,27.275l-1.09-2.496l-7.963-18.932h-0.686l-6.926,16.541c-0.504,1.184-0.785,1.863-0.844,2.039
			c-0.727,1.863-1.348,3.085-1.863,3.665c-0.516,0.58-1.301,0.952-2.356,1.116v0.809h7.084v-0.809c-0.762,0-1.386-0.185-1.872-0.554
			c-0.486-0.369-0.729-0.911-0.729-1.626c0-0.668,0.457-2.098,1.371-4.289l0.615-1.512h9.053l1.828,4.412
			c0.539,1.277,0.809,2.045,0.809,2.303c0,0.504-0.202,0.841-0.606,1.011c-0.404,0.17-1.181,0.255-2.329,0.255v0.809h9.369v-0.809
			c-0.832-0.082-1.456-0.284-1.872-0.606C122.709,28.28,122.378,27.838,122.132,27.275z M107.208,20.438l4.201-10.16l4.219,10.16
			H107.208z M143.032,23.25c-2.215-2.988-3.82-4.722-4.816-5.203c2.226-0.269,3.914-0.955,5.062-2.057
			c1.148-1.101,1.723-2.432,1.723-3.99c0-1.336-0.439-2.484-1.318-3.445c-0.879-0.961-2.03-1.652-3.454-2.074
			c-1.424-0.422-3.273-0.633-5.546-0.633c-1.336,0-3.141,0.053-5.414,0.158l-3.41,0.176V6.99h0.404c1.207,0,1.992,0.105,2.355,0.316
			c0.363,0.211,0.598,0.592,0.703,1.143c0.106,0.551,0.158,1.775,0.158,3.674v11.689c0,1.992-0.053,3.261-0.158,3.806
			c-0.105,0.545-0.354,0.947-0.747,1.204c-0.393,0.258-1.099,0.387-2.118,0.387h-0.773v0.809h11.408v-0.809h-1.143
			c-1.078,0-1.808-0.141-2.189-0.422c-0.381-0.281-0.615-0.712-0.703-1.292s-0.132-1.808-0.132-3.683v-5.291h0.949
			c0.644,0,1.119,0.109,1.424,0.325c0.305,0.217,0.861,0.82,1.67,1.811c0.809,0.99,1.588,2.024,2.338,3.102
			c2.344,3.375,4.084,5.461,5.221,6.258h6.416v-0.809c-1.406-0.047-2.625-0.445-3.656-1.195
			C146.255,27.264,144.836,25.676,143.032,23.25z M135.649,17.607c-0.938,0.047-1.846,0.082-2.725,0.105V6.815
			c0.562-0.047,1.06-0.07,1.494-0.07c2.812,0,4.638,0.504,5.476,1.512c0.838,1.008,1.257,2.35,1.257,4.025
			c0,0.961-0.123,1.77-0.369,2.426c-0.246,0.656-0.583,1.186-1.011,1.591c-0.428,0.404-0.987,0.712-1.679,0.923
			C137.401,17.432,136.587,17.561,135.649,17.607z M148.376,6.182l-0.123,5.73h0.809c0.246-1.512,0.6-2.637,1.064-3.375
			c0.463-0.738,0.958-1.18,1.485-1.327c0.527-0.146,1.558-0.22,3.094-0.22h3.533v16.822c0,1.992-0.056,3.261-0.167,3.806
			c-0.111,0.545-0.363,0.947-0.756,1.204c-0.393,0.258-1.099,0.387-2.118,0.387h-1.23v0.809h11.883v-0.809h-1.16
			c-1.066,0-1.793-0.141-2.18-0.422c-0.387-0.281-0.624-0.715-0.712-1.301c-0.088-0.586-0.132-1.811-0.132-3.674V6.99h3.832
			c1.301,0,2.221,0.079,2.76,0.237c0.539,0.158,1.043,0.586,1.512,1.283c0.469,0.697,0.838,1.831,1.107,3.401h0.756l-0.123-5.73
			H148.376z M189.052,6.99c1.055,0,1.787,0.205,2.197,0.615c0.41,0.41,0.615,0.861,0.615,1.354c0,0.539-0.387,1.453-1.16,2.742
			l-4.693,7.893l-5.695-9.404c-0.598-0.984-0.896-1.641-0.896-1.969c0-0.82,0.902-1.23,2.707-1.23V6.182h-9.668V6.99
			c1.031,0.024,1.746,0.226,2.145,0.606c0.398,0.381,1.201,1.556,2.408,3.524l5.941,9.756v2.936c0,1.992-0.053,3.261-0.158,3.806
			c-0.106,0.545-0.355,0.947-0.747,1.204c-0.393,0.258-1.099,0.387-2.118,0.387h-0.387v0.809h10.16v-0.809
			c-1.184,0-1.978-0.114-2.382-0.343s-0.668-0.621-0.791-1.178c-0.123-0.556-0.185-1.848-0.185-3.876v-3.164l5.344-8.912
			c1.031-1.711,1.878-2.892,2.54-3.542c0.662-0.65,1.532-1.052,2.61-1.204V6.182h-7.787V6.99z M221.281,6.533
			c-1.33-0.387-3.226-0.58-5.687-0.58c-1.336,0-3.199,0.041-5.59,0.123l-2.988,0.106V6.99h0.439c1.207,0,1.992,0.105,2.355,0.316
			c0.363,0.211,0.598,0.592,0.703,1.143c0.105,0.551,0.158,1.775,0.158,3.674v11.689c0,1.992-0.053,3.261-0.158,3.806
			c-0.106,0.545-0.355,0.947-0.747,1.204c-0.393,0.258-1.099,0.387-2.118,0.387h-0.633v0.809h10.916v-0.809h-0.791
			c-1.066,0-1.793-0.141-2.18-0.422c-0.387-0.281-0.624-0.712-0.712-1.292c-0.088-0.58-0.132-1.808-0.132-3.683v-5.01h2.619
			c2.73,0,4.638-0.258,5.722-0.773c1.084-0.516,1.916-1.271,2.496-2.268c0.58-0.996,0.87-2.145,0.87-3.445
			c0-1.5-0.425-2.742-1.274-3.727C223.701,7.605,222.611,6.92,221.281,6.533z M221.255,15.779c-0.562,0.879-1.266,1.456-2.109,1.731
			c-0.844,0.275-1.951,0.413-3.322,0.413h-1.705V6.885c0.422-0.047,1.031-0.07,1.828-0.07c2.168,0,3.735,0.46,4.702,1.38
			c0.967,0.92,1.45,2.364,1.45,4.333C222.098,13.817,221.817,14.9,221.255,15.779z M250.144,9.047
			c-2.49-2.203-5.593-3.305-9.308-3.305c-3.68,0-6.75,1.114-9.211,3.34c-2.461,2.227-3.691,5.18-3.691,8.859
			c0,3.773,1.213,6.803,3.639,9.088c2.426,2.285,5.531,3.428,9.316,3.428c3.891,0,7.028-1.143,9.413-3.428
			c2.385-2.285,3.577-5.273,3.577-8.965C253.88,14.256,252.634,11.25,250.144,9.047z M247.499,26.695
			c-1.559,1.922-3.68,2.883-6.363,2.883c-3.059,0-5.353-0.961-6.882-2.883c-1.529-1.922-2.294-4.799-2.294-8.631
			c0-3.773,0.765-6.624,2.294-8.552c1.529-1.928,3.729-2.892,6.601-2.892c2.918,0,5.144,0.987,6.68,2.962
			c1.535,1.975,2.303,4.814,2.303,8.517C249.837,21.908,249.057,24.774,247.499,26.695z M271.15,6.533
			c-1.33-0.387-3.226-0.58-5.687-0.58c-1.336,0-3.199,0.041-5.59,0.123l-2.988,0.106V6.99h0.439c1.207,0,1.992,0.105,2.355,0.316
			c0.363,0.211,0.598,0.592,0.703,1.143c0.106,0.551,0.158,1.775,0.158,3.674v11.689c0,1.992-0.053,3.261-0.158,3.806
			c-0.105,0.545-0.354,0.947-0.747,1.204c-0.393,0.258-1.099,0.387-2.118,0.387h-0.633v0.809h10.916v-0.809h-0.791
			c-1.067,0-1.793-0.141-2.18-0.422c-0.387-0.281-0.624-0.712-0.712-1.292s-0.132-1.808-0.132-3.683v-5.01h2.619
			c2.73,0,4.638-0.258,5.722-0.773c1.084-0.516,1.916-1.271,2.496-2.268c0.58-0.996,0.87-2.145,0.87-3.445
			c0-1.5-0.425-2.742-1.274-3.727C273.57,7.605,272.48,6.92,271.15,6.533z M271.124,15.779c-0.562,0.879-1.266,1.456-2.109,1.731
			c-0.844,0.275-1.951,0.413-3.322,0.413h-1.705V6.885c0.422-0.047,1.031-0.07,1.828-0.07c2.168,0,3.735,0.46,4.702,1.38
			c0.967,0.92,1.45,2.364,1.45,4.333C271.967,13.817,271.686,14.9,271.124,15.779z M291.4,6.533c-1.33-0.387-3.226-0.58-5.687-0.58
			c-1.336,0-3.199,0.041-5.59,0.123l-2.988,0.106V6.99h0.439c1.207,0,1.992,0.105,2.355,0.316c0.363,0.211,0.598,0.592,0.703,1.143
			c0.106,0.551,0.158,1.775,0.158,3.674v11.689c0,1.992-0.053,3.261-0.158,3.806c-0.105,0.545-0.354,0.947-0.747,1.204
			c-0.393,0.258-1.099,0.387-2.118,0.387h-0.633v0.809h10.916v-0.809h-0.791c-1.067,0-1.793-0.141-2.18-0.422
			c-0.387-0.281-0.624-0.712-0.712-1.292s-0.132-1.808-0.132-3.683v-5.01h2.619c2.73,0,4.638-0.258,5.722-0.773
			c1.084-0.516,1.916-1.271,2.496-2.268c0.58-0.996,0.87-2.145,0.87-3.445c0-1.5-0.425-2.742-1.274-3.727
			C293.82,7.605,292.73,6.92,291.4,6.533z M291.374,15.779c-0.562,0.879-1.266,1.456-2.109,1.731
			c-0.844,0.275-1.951,0.413-3.322,0.413h-1.705V6.885c0.422-0.047,1.031-0.07,1.828-0.07c2.168,0,3.735,0.46,4.702,1.38
			c0.967,0.92,1.45,2.364,1.45,4.333C292.217,13.817,291.936,14.9,291.374,15.779z M315.025,26.739
			c-0.732,1.002-1.503,1.664-2.312,1.986c-0.809,0.323-1.84,0.483-3.094,0.483h-1.775c-1.594,0-2.573-0.249-2.936-0.747
			c-0.363-0.498-0.545-2.159-0.545-4.983v-5.643h2.619c1.02,0,1.743,0.068,2.171,0.202c0.428,0.135,0.753,0.428,0.975,0.879
			c0.223,0.451,0.334,1.339,0.334,2.663h0.826v-8.156h-0.826c0,1.172-0.073,1.96-0.22,2.364c-0.147,0.404-0.451,0.706-0.914,0.905
			c-0.463,0.199-1.274,0.299-2.435,0.299h-2.531V6.99h3.305c1.664,0,2.871,0.091,3.621,0.272c0.75,0.182,1.397,0.621,1.942,1.318
			c0.545,0.697,1.005,1.878,1.38,3.542h0.826l-0.562-5.941h-17.033V6.99c1.148,0,1.901,0.114,2.259,0.343
			c0.357,0.229,0.586,0.63,0.686,1.204c0.099,0.574,0.149,1.77,0.149,3.586v11.689c0,1.992-0.047,3.232-0.141,3.718
			c-0.094,0.487-0.314,0.888-0.659,1.204c-0.346,0.316-1.11,0.475-2.294,0.475h-0.492v0.809h19.74l0.51-7.418h-0.844
			C316.335,24.357,315.757,25.737,315.025,26.739z M336.971,23.25c-2.215-2.988-3.82-4.722-4.816-5.203
			c2.226-0.269,3.914-0.955,5.062-2.057c1.148-1.101,1.723-2.432,1.723-3.99c0-1.336-0.44-2.484-1.318-3.445
			c-0.879-0.961-2.03-1.652-3.454-2.074c-1.424-0.422-3.272-0.633-5.546-0.633c-1.336,0-3.141,0.053-5.414,0.158l-3.41,0.176V6.99
			h0.404c1.207,0,1.992,0.105,2.355,0.316c0.363,0.211,0.598,0.592,0.703,1.143c0.105,0.551,0.158,1.775,0.158,3.674v11.689
			c0,1.992-0.053,3.261-0.158,3.806c-0.106,0.545-0.355,0.947-0.747,1.204c-0.393,0.258-1.099,0.387-2.118,0.387h-0.773v0.809
			h11.408v-0.809h-1.143c-1.078,0-1.808-0.141-2.188-0.422c-0.381-0.281-0.615-0.712-0.703-1.292
			c-0.088-0.58-0.132-1.808-0.132-3.683v-5.291h0.949c0.644,0,1.119,0.109,1.424,0.325c0.305,0.217,0.861,0.82,1.67,1.811
			c0.809,0.99,1.588,2.024,2.338,3.102c2.344,3.375,4.084,5.461,5.221,6.258h6.416v-0.809c-1.406-0.047-2.625-0.445-3.656-1.195
			C340.194,27.264,338.776,25.676,336.971,23.25z M329.589,17.607c-0.938,0.047-1.846,0.082-2.725,0.105V6.815
			c0.562-0.047,1.06-0.07,1.494-0.07c2.812,0,4.638,0.504,5.476,1.512c0.838,1.008,1.257,2.35,1.257,4.025
			c0,0.961-0.123,1.77-0.369,2.426c-0.246,0.656-0.583,1.186-1.011,1.591c-0.428,0.404-0.987,0.712-1.679,0.923
			C331.34,17.432,330.526,17.561,329.589,17.607z M361.95,20.156c-0.562-0.984-1.31-1.755-2.241-2.312
			c-0.932-0.557-2.423-1.292-4.474-2.206c-2.145-0.961-3.627-1.828-4.447-2.602c-0.832-0.762-1.248-1.693-1.248-2.795
			c0-0.914,0.331-1.755,0.993-2.522c0.662-0.767,1.702-1.151,3.12-1.151c1.488,0,2.798,0.522,3.929,1.565
			c1.131,1.043,1.919,2.473,2.364,4.289h0.773v-6.24h-0.773c-0.07,0.75-0.375,1.447-0.914,2.092
			c-0.938-1.031-1.852-1.711-2.742-2.039c-0.891-0.328-1.84-0.492-2.848-0.492c-1.805,0-3.296,0.566-4.474,1.696
			c-1.178,1.131-1.767,2.546-1.767,4.245c0,1.113,0.272,2.162,0.817,3.146c0.545,0.984,1.303,1.784,2.276,2.399
			c0.973,0.615,2.414,1.333,4.324,2.153c2.145,0.914,3.621,1.77,4.43,2.566c0.809,0.809,1.213,1.81,1.213,3.006
			c0,1.184-0.46,2.253-1.38,3.208c-0.92,0.955-2.218,1.433-3.894,1.433c-3.727,0-6.088-2.496-7.084-7.488h-0.879v7.664h0.879
			c0.187-0.996,0.475-1.769,0.861-2.32c1.746,2.004,3.926,3.006,6.539,3.006c2.273,0,4.09-0.639,5.449-1.916
			c1.359-1.277,2.039-2.936,2.039-4.975C362.794,22.277,362.512,21.141,361.95,20.156z"/>
	</g>
</g>
</svg>
